# xmcd
#
# Track frame offsets: 
#        150
#        12229
#        30946
#        50577
#        73003
#
# Disc length: 1319 seconds
#
# Revision: 0
# Processed by: cddbd v1.4PL0 Copyright (c) Steve Scherf et al.
# Submitted via: ExactAudioCopy v0.90b3
#
DISCID=37052505
DTITLE=The mighty beaver blues band - Promo Disc 2003
DYEAR=2003
DGENRE=Blues
TTITLE0=TMBBB - Wait on Time (cover)
TTITLE1=TMBBB - Bongalo Bossa
TTITLE2=TMBBB - Red House (cover)
TTITLE3=TMBBB - November Blues
TTITLE4=TMBBB - Red House (remix)
EXTD=
EXTT0=
EXTT1=
EXTT2=
EXTT3=
EXTT4=
PLAYORDER=
